<svg xmlns="http://www.w3.org/2000/svg" width="50" height="50" viewBox="0 0 50 50"><defs><style>.a{fill:#fdfdfc;}</style></defs><g transform="translate(0)"><path class="a" d="M1940.552,267.121a5.841,5.841,0,1,1-5.841-5.841A5.841,5.841,0,0,1,1940.552,267.121Z" transform="translate(-1909.711 -242.121)"/><path class="a" d="M1913.351,226.587a8.665,8.665,0,0,0-.541-2.922,5.218,5.218,0,0,0-2.985-2.989,8.76,8.76,0,0,0-2.926-.541c-1.66-.074-2.156-.093-6.359-.093s-4.7.019-6.359.093a8.712,8.712,0,0,0-2.922.541,4.949,4.949,0,0,0-1.811,1.178,4.887,4.887,0,0,0-1.178,1.811,8.665,8.665,0,0,0-.541,2.922c-.078,1.659-.093,2.159-.093,6.363s.015,4.7.093,6.359a8.664,8.664,0,0,0,.541,2.922,5.211,5.211,0,0,0,2.989,2.989,8.713,8.713,0,0,0,2.922.541c1.659.074,2.156.093,6.359.093s4.7-.019,6.359-.093a8.761,8.761,0,0,0,2.926-.541,5.218,5.218,0,0,0,2.985-2.989,8.664,8.664,0,0,0,.541-2.922c.078-1.659.093-2.159.093-6.359S1913.429,228.246,1913.351,226.587Zm-12.811,14.444a8.083,8.083,0,1,1,8.081-8.081A8.082,8.082,0,0,1,1900.54,241.031Zm8.4-14.6a1.889,1.889,0,1,1,1.889-1.889A1.887,1.887,0,0,1,1908.944,226.435Zm4.407.152a8.665,8.665,0,0,0-.541-2.922,5.218,5.218,0,0,0-2.985-2.989,8.76,8.76,0,0,0-2.926-.541c-1.66-.074-2.156-.093-6.359-.093s-4.7.019-6.359.093a8.712,8.712,0,0,0-2.922.541,4.949,4.949,0,0,0-1.811,1.178,4.887,4.887,0,0,0-1.178,1.811,8.665,8.665,0,0,0-.541,2.922c-.078,1.659-.093,2.159-.093,6.363s.015,4.7.093,6.359a8.664,8.664,0,0,0,.541,2.922,5.211,5.211,0,0,0,2.989,2.989,8.713,8.713,0,0,0,2.922.541c1.659.074,2.156.093,6.359.093s4.7-.019,6.359-.093a8.761,8.761,0,0,0,2.926-.541,5.218,5.218,0,0,0,2.985-2.989,8.664,8.664,0,0,0,.541-2.922c.078-1.659.093-2.159.093-6.359S1913.429,228.246,1913.351,226.587Zm-12.811,14.444a8.083,8.083,0,1,1,8.081-8.081A8.082,8.082,0,0,1,1900.54,241.031Zm8.4-14.6a1.889,1.889,0,1,1,1.889-1.889A1.887,1.887,0,0,1,1908.944,226.435Zm-8.4-18.485a25,25,0,1,0,25,25A25,25,0,0,0,1900.54,207.95Zm15.644,31.489a11.533,11.533,0,0,1-.73,3.822,8.045,8.045,0,0,1-4.6,4.6,11.482,11.482,0,0,1-3.822.733c-1.678.078-2.215.1-6.489.1s-4.811-.019-6.489-.1a11.482,11.482,0,0,1-3.822-.733,8.045,8.045,0,0,1-4.6-4.6,11.528,11.528,0,0,1-.729-3.822c-.078-1.678-.1-2.215-.1-6.489s.018-4.811.1-6.493a11.483,11.483,0,0,1,.729-3.819,8.037,8.037,0,0,1,4.6-4.6,11.577,11.577,0,0,1,3.822-.733c1.678-.078,2.215-.093,6.489-.093s4.811.015,6.489.093a11.577,11.577,0,0,1,3.822.733,8.037,8.037,0,0,1,4.6,4.6,11.489,11.489,0,0,1,.73,3.819c.078,1.681.1,2.215.1,6.493S1916.262,237.761,1916.185,239.439Zm-3.374-15.774a5.218,5.218,0,0,0-2.985-2.989,8.76,8.76,0,0,0-2.926-.541c-1.66-.074-2.156-.093-6.359-.093s-4.7.019-6.359.093a8.712,8.712,0,0,0-2.922.541,4.949,4.949,0,0,0-1.811,1.178,4.887,4.887,0,0,0-1.178,1.811,8.665,8.665,0,0,0-.541,2.922c-.078,1.659-.093,2.159-.093,6.363s.015,4.7.093,6.359a8.664,8.664,0,0,0,.541,2.922,5.211,5.211,0,0,0,2.989,2.989,8.713,8.713,0,0,0,2.922.541c1.659.074,2.156.093,6.359.093s4.7-.019,6.359-.093a8.761,8.761,0,0,0,2.926-.541,5.218,5.218,0,0,0,2.985-2.989,8.664,8.664,0,0,0,.541-2.922c.078-1.659.093-2.159.093-6.359s-.015-4.7-.093-6.363A8.665,8.665,0,0,0,1912.81,223.665Zm-12.27,17.367a8.083,8.083,0,1,1,8.081-8.081A8.082,8.082,0,0,1,1900.54,241.031Zm8.4-14.6a1.889,1.889,0,1,1,1.889-1.889A1.887,1.887,0,0,1,1908.944,226.435Z" transform="translate(-1875.54 -207.95)"/></g></svg>