<svg xmlns="http://www.w3.org/2000/svg" width="35.516" height="35.516" viewBox="0 0 35.516 35.516"><path d="M1937.168,265.429a4.149,4.149,0,1,1-4.149-4.149A4.149,4.149,0,0,1,1937.168,265.429Z" transform="translate(-1915.261 -247.671)" fill="#383838"/><path d="M1902.4,221.188a6.158,6.158,0,0,0-.384-2.076,3.707,3.707,0,0,0-2.121-2.123,6.222,6.222,0,0,0-2.078-.384c-1.179-.053-1.531-.066-4.517-.066s-3.339.013-4.517.066a6.189,6.189,0,0,0-2.076.384,3.516,3.516,0,0,0-1.286.837,3.473,3.473,0,0,0-.837,1.286,6.158,6.158,0,0,0-.384,2.076c-.055,1.179-.066,1.534-.066,4.52s.01,3.339.066,4.517a6.158,6.158,0,0,0,.384,2.076,3.7,3.7,0,0,0,2.123,2.123,6.188,6.188,0,0,0,2.076.384c1.179.053,1.531.066,4.517.066s3.338-.013,4.517-.066a6.221,6.221,0,0,0,2.078-.384,3.707,3.707,0,0,0,2.121-2.123,6.158,6.158,0,0,0,.384-2.076c.055-1.179.066-1.534.066-4.517S1902.453,222.367,1902.4,221.188Zm-9.1,10.26a5.742,5.742,0,1,1,5.74-5.74A5.741,5.741,0,0,1,1893.3,231.448Zm5.969-10.368a1.342,1.342,0,1,1,1.342-1.342A1.34,1.34,0,0,1,1899.267,221.08Zm3.131.108a6.158,6.158,0,0,0-.384-2.076,3.707,3.707,0,0,0-2.121-2.123,6.222,6.222,0,0,0-2.078-.384c-1.179-.053-1.531-.066-4.517-.066s-3.339.013-4.517.066a6.189,6.189,0,0,0-2.076.384,3.516,3.516,0,0,0-1.286.837,3.473,3.473,0,0,0-.837,1.286,6.158,6.158,0,0,0-.384,2.076c-.055,1.179-.066,1.534-.066,4.52s.01,3.339.066,4.517a6.158,6.158,0,0,0,.384,2.076,3.7,3.7,0,0,0,2.123,2.123,6.188,6.188,0,0,0,2.076.384c1.179.053,1.531.066,4.517.066s3.338-.013,4.517-.066a6.221,6.221,0,0,0,2.078-.384,3.707,3.707,0,0,0,2.121-2.123,6.158,6.158,0,0,0,.384-2.076c.055-1.179.066-1.534.066-4.517S1902.453,222.367,1902.4,221.188Zm-9.1,10.26a5.742,5.742,0,1,1,5.74-5.74A5.741,5.741,0,0,1,1893.3,231.448Zm5.969-10.368a1.342,1.342,0,1,1,1.342-1.342A1.34,1.34,0,0,1,1899.267,221.08Zm-5.969-13.13a17.758,17.758,0,1,0,17.758,17.758A17.758,17.758,0,0,0,1893.3,207.95Zm11.112,22.367a8.186,8.186,0,0,1-.518,2.715,5.714,5.714,0,0,1-3.27,3.267,8.155,8.155,0,0,1-2.715.521c-1.192.055-1.573.068-4.609.068s-3.417-.013-4.609-.068a8.155,8.155,0,0,1-2.715-.521,5.714,5.714,0,0,1-3.27-3.267,8.186,8.186,0,0,1-.518-2.715c-.055-1.192-.068-1.573-.068-4.609s.013-3.417.068-4.612a8.154,8.154,0,0,1,.518-2.712,5.709,5.709,0,0,1,3.27-3.27,8.224,8.224,0,0,1,2.715-.521c1.192-.055,1.573-.066,4.609-.066s3.417.011,4.609.066a8.224,8.224,0,0,1,2.715.521,5.709,5.709,0,0,1,3.27,3.27,8.154,8.154,0,0,1,.518,2.712c.055,1.194.069,1.573.069,4.612S1904.466,229.125,1904.41,230.317Zm-2.4-11.2a3.707,3.707,0,0,0-2.121-2.123,6.222,6.222,0,0,0-2.078-.384c-1.179-.053-1.531-.066-4.517-.066s-3.339.013-4.517.066a6.189,6.189,0,0,0-2.076.384,3.516,3.516,0,0,0-1.286.837,3.473,3.473,0,0,0-.837,1.286,6.158,6.158,0,0,0-.384,2.076c-.055,1.179-.066,1.534-.066,4.52s.01,3.339.066,4.517a6.158,6.158,0,0,0,.384,2.076,3.7,3.7,0,0,0,2.123,2.123,6.188,6.188,0,0,0,2.076.384c1.179.053,1.531.066,4.517.066s3.338-.013,4.517-.066a6.221,6.221,0,0,0,2.078-.384,3.707,3.707,0,0,0,2.121-2.123,6.158,6.158,0,0,0,.384-2.076c.055-1.179.066-1.534.066-4.517s-.01-3.341-.066-4.52A6.158,6.158,0,0,0,1902.014,219.112Zm-8.716,12.336a5.742,5.742,0,1,1,5.74-5.74A5.741,5.741,0,0,1,1893.3,231.448Zm5.969-10.368a1.342,1.342,0,1,1,1.342-1.342A1.34,1.34,0,0,1,1899.267,221.08Z" transform="translate(-1875.54 -207.95)" fill="#383838"/></svg>