<svg xmlns="http://www.w3.org/2000/svg" width="50" height="50" viewBox="0 0 50 50"><defs><style>.a{fill:#fdfdfc;}</style></defs><path class="a" d="M2486.37,211.32a25,25,0,1,0,25,25A25,25,0,0,0,2486.37,211.32Zm-7.815,28.822c0,3.13,0,6.259.007,9.389,0,.348-.085.452-.444.448-1.778-.019-3.555-.015-5.333,0-.285,0-.374-.07-.374-.367q.016-9.506,0-19.011c0-.263.063-.356.341-.356,1.8.011,3.611.015,5.415,0,.344,0,.393.13.393.426C2478.552,233.827,2478.555,236.983,2478.555,240.142Zm-3.063-12.607a3.552,3.552,0,1,1,3.555-3.57A3.581,3.581,0,0,1,2475.492,227.535Zm26.074,22.037c0,.326-.089.411-.407.407q-2.667-.022-5.337,0c-.311,0-.381-.1-.378-.389q.011-4.933,0-9.859a8.958,8.958,0,0,0-.285-2.448,2.753,2.753,0,0,0-3.026-2.144,3.309,3.309,0,0,0-3.477,3.3,12.554,12.554,0,0,0-.093,1.541c0,3.2,0,6.389.008,9.585,0,.319-.078.415-.4.411q-2.689-.022-5.378,0c-.285,0-.37-.078-.37-.367q.016-9.494,0-18.981c0-.315.1-.385.4-.385q2.55.022,5.1,0c.315,0,.4.1.389.4-.019.756-.008,1.511-.008,2.267.411-.459.752-.93,1.171-1.326a6.408,6.408,0,0,1,4.622-1.822,10.645,10.645,0,0,1,2.9.352,5.676,5.676,0,0,1,4.033,4.241,17.776,17.776,0,0,1,.537,4.859C2501.578,242.664,2501.559,246.12,2501.566,249.572Z" transform="translate(-2461.37 -211.32)"/></svg>