<svg xmlns="http://www.w3.org/2000/svg" width="35.516" height="35.516" viewBox="0 0 35.516 35.516"><path d="M2479.128,211.32a17.758,17.758,0,1,0,17.758,17.758A17.758,17.758,0,0,0,2479.128,211.32Zm-5.551,20.473c0,2.223,0,4.446.005,6.669,0,.247-.061.321-.316.318-1.263-.013-2.526-.011-3.788,0-.2,0-.266-.05-.266-.26q.012-6.752,0-13.5c0-.187.045-.253.242-.253,1.281.008,2.565.01,3.846,0,.245,0,.279.092.279.3C2473.575,227.307,2473.577,229.549,2473.577,231.793Zm-2.176-8.955a2.523,2.523,0,1,1,2.526-2.536A2.544,2.544,0,0,1,2471.4,222.838Zm18.521,15.653c0,.232-.063.292-.289.289q-1.894-.016-3.791,0c-.221,0-.271-.068-.268-.276q.008-3.5,0-7a6.37,6.37,0,0,0-.2-1.739,1.955,1.955,0,0,0-2.15-1.523,2.35,2.35,0,0,0-2.47,2.347,8.93,8.93,0,0,0-.066,1.094c0,2.27,0,4.538.005,6.809,0,.226-.055.295-.287.292q-1.91-.016-3.82,0c-.2,0-.263-.055-.263-.26q.012-6.744,0-13.483c0-.224.073-.274.284-.274q1.812.016,3.625,0c.223,0,.281.068.276.281-.013.537-.006,1.073-.006,1.61.292-.326.534-.66.832-.942a4.552,4.552,0,0,1,3.283-1.294,7.56,7.56,0,0,1,2.062.25,4.032,4.032,0,0,1,2.865,3.012,12.624,12.624,0,0,1,.382,3.452C2489.93,233.584,2489.917,236.039,2489.922,238.491Z" transform="translate(-2461.37 -211.32)" fill="#383838"/></svg>