<svg xmlns="http://www.w3.org/2000/svg" width="50" height="50" viewBox="0 0 50 50"><defs><style>.a{fill:#fdfdfc;fill-rule:evenodd;}</style></defs><g transform="translate(0)"><path class="a" d="M2087.02,207.95a25,25,0,1,0,25,25A25,25,0,0,0,2087.02,207.95Zm13.819,19.652c.011.285.018.57.018.856,0,8.774-6.677,18.889-18.889,18.889a18.8,18.8,0,0,1-10.174-2.981,13.1,13.1,0,0,0,1.582.093,13.33,13.33,0,0,0,8.245-2.841,6.648,6.648,0,0,1-6.2-4.611,6.651,6.651,0,0,0,3-.115,6.64,6.64,0,0,1-5.326-6.507.635.635,0,0,1,0-.085,6.585,6.585,0,0,0,3,.83,6.643,6.643,0,0,1-2.052-8.863,18.829,18.829,0,0,0,13.681,6.937,6.642,6.642,0,0,1,11.311-6.056,13.217,13.217,0,0,0,4.219-1.611,6.667,6.667,0,0,1-2.922,3.674,13.4,13.4,0,0,0,3.815-1.044A13.589,13.589,0,0,1,2100.839,227.6Z" transform="translate(-2062.02 -207.95)"/></g></svg>