<svg xmlns="http://www.w3.org/2000/svg" width="35.516" height="35.516" viewBox="0 0 35.516 35.516"><path d="M2079.778,207.95a17.758,17.758,0,1,0,17.758,17.758A17.758,17.758,0,0,0,2079.778,207.95Zm9.816,13.959c.008.2.013.405.013.608a13.411,13.411,0,0,1-20.644,11.3,9.3,9.3,0,0,0,1.123.066,9.469,9.469,0,0,0,5.856-2.018,4.722,4.722,0,0,1-4.4-3.275,4.724,4.724,0,0,0,2.128-.082,4.717,4.717,0,0,1-3.783-4.622.4.4,0,0,1,0-.06,4.675,4.675,0,0,0,2.133.589,4.719,4.719,0,0,1-1.457-6.3,13.374,13.374,0,0,0,9.718,4.927,4.718,4.718,0,0,1,8.034-4.3,9.388,9.388,0,0,0,3-1.144,4.734,4.734,0,0,1-2.075,2.61,9.522,9.522,0,0,0,2.71-.742A9.649,9.649,0,0,1,2089.594,221.909Z" transform="translate(-2062.02 -207.95)" fill="#383838" fill-rule="evenodd"/></svg>