<svg xmlns="http://www.w3.org/2000/svg" width="50" height="50" viewBox="0 0 50 50"><defs><style>.a{fill:#fdfdfc;}</style></defs><g transform="translate(0)"><path class="a" d="M2339.49,265.32l9.638,5.565-9.638,5.565Z" transform="translate(-2318.336 -245.885)"/><path class="a" d="M2305.99,211.32a25,25,0,1,0,25,25A25,25,0,0,0,2305.99,211.32Zm15.967,33.022a4.163,4.163,0,0,1-2.944,2.948c-2.6.7-13.022.7-13.022.7s-10.426,0-13.026-.7a4.163,4.163,0,0,1-2.944-2.948,46.562,46.562,0,0,1,0-16.044,4.175,4.175,0,0,1,2.944-2.948c2.6-.7,13.026-.7,13.026-.7s10.422,0,13.022.7a4.175,4.175,0,0,1,2.944,2.948,46.322,46.322,0,0,1,0,16.044Z" transform="translate(-2280.99 -211.32)"/></g></svg>