<svg xmlns="http://www.w3.org/2000/svg" width="35.516" height="35.516" viewBox="0 0 35.516 35.516"><path d="M2339.49,265.32l6.846,3.953-6.846,3.953Z" transform="translate(-2324.464 -251.515)" fill="#383838"/><path d="M2298.748,211.32a17.758,17.758,0,1,0,17.758,17.758A17.758,17.758,0,0,0,2298.748,211.32Zm11.341,23.456A2.956,2.956,0,0,1,2308,236.87c-1.847.495-9.25.495-9.25.495s-7.406,0-9.253-.495a2.956,2.956,0,0,1-2.091-2.094,33.071,33.071,0,0,1,0-11.4,2.965,2.965,0,0,1,2.091-2.094c1.847-.495,9.253-.495,9.253-.495s7.4,0,9.25.495a2.965,2.965,0,0,1,2.091,2.094,32.895,32.895,0,0,1,0,11.4Z" transform="translate(-2280.99 -211.32)" fill="#383838"/></svg>