<svg xmlns="http://www.w3.org/2000/svg" width="148.741" height="50.573" viewBox="0 0 148.741 50.573">
  <defs>
    <style>
      .cls-1 {
        fill: #fdfdfc;
        fill-rule: evenodd;
      }
    </style>
  </defs>
  <g id="Сгруппировать_24" data-name="Сгруппировать 24" transform="translate(1752.04 -466.143)">
    <g id="Сгруппировать_6" data-name="Сгруппировать 6" transform="translate(-1752.04 466.143)">
      <path id="Контур_6" data-name="Контур 6" class="cls-1" d="M-1698.876,511.546a3.733,3.733,0,0,1,.3-4.169l-6.885-3.975-6.8-3.927a3.733,3.733,0,0,1-.686,1.1l5.784,3.334-8.561,4.935-8.56-4.935,5.784-3.334a3.718,3.718,0,0,1-.686-1.1l-6.8,3.927-6.884,3.975a3.73,3.73,0,0,1,.3,4.169,3.73,3.73,0,0,1-3.676,1.839v15.783a3.7,3.7,0,0,1,1.3.072l0-6.836,8.554,4.946.006,9.88-5.812-3.361a3.74,3.74,0,0,1-.56,1.174l6.785,3.918,6.867,3.965a3.731,3.731,0,0,1,3.4-2.189,3.731,3.731,0,0,1,3.4,2.189l6.868-3.965,6.786-3.918a3.733,3.733,0,0,1-.561-1.174l-5.813,3.361.007-9.88,8.553-4.946-.005,6.836a3.706,3.706,0,0,1,1.3-.072V513.385A3.733,3.733,0,0,1-1698.876,511.546Zm-26.873,14.628-8.561-4.934,8.561-4.935,8.561,4.935Zm10.706-16.166,8.553-4.946-.007,9.881-8.553,4.946Zm.1,22.289-.007-9.881,8.554,4.946.007,9.881Z" transform="translate(1737.91 -495.99)"/>
      <path id="Контур_7" data-name="Контур 7" class="cls-1" d="M-1557.845,466.143a2.1,2.1,0,0,0-2.1,2.1,2.1,2.1,0,0,0,2.1,2.1,2.1,2.1,0,0,0,2.1-2.1,2.1,2.1,0,0,0-2.1-2.1Z" transform="translate(1580.026 -466.143)"/>
      <path id="Контур_8" data-name="Контур 8" class="cls-1" d="M-1363.938,578.095a2.1,2.1,0,0,0-2.863-.767,2.1,2.1,0,0,0-.767,2.863,2.1,2.1,0,0,0,2.863.767,2.1,2.1,0,0,0,.767-2.862Z" transform="translate(1408.016 -565.451)"/>
      <path id="Контур_9" data-name="Контур 9" class="cls-1" d="M-1363.938,802a2.1,2.1,0,0,0-.767-2.863,2.1,2.1,0,0,0-2.863.767,2.1,2.1,0,0,0,.767,2.863,2.1,2.1,0,0,0,2.863-.767Z" transform="translate(1408.016 -764.073)"/>
      <path id="Контур_10" data-name="Контур 10" class="cls-1" d="M-1557.845,909.769a2.1,2.1,0,0,0-2.1,2.1,2.1,2.1,0,0,0,2.1,2.1,2.1,2.1,0,0,0,2.1-2.1,2.1,2.1,0,0,0-2.1-2.1Z" transform="translate(1580.026 -863.387)"/>
      <path id="Контур_11" data-name="Контур 11" class="cls-1" d="M-1748.129,799.908a2.1,2.1,0,0,0-2.863-.767,2.1,2.1,0,0,0-.767,2.863,2.1,2.1,0,0,0,2.863.767,2.1,2.1,0,0,0,.767-2.863Z" transform="translate(1752.04 -764.073)"/>
      <path id="Контур_12" data-name="Контур 12" class="cls-1" d="M-1748.129,580.19a2.1,2.1,0,0,0-.767-2.863,2.1,2.1,0,0,0-2.863.767,2.1,2.1,0,0,0,.767,2.862,2.1,2.1,0,0,0,2.863-.767Z" transform="translate(1752.04 -565.451)"/>
    </g>
    <path id="Контур_13" data-name="Контур 13" class="cls-1" d="M-1222.321,618.973a3.1,3.1,0,0,0-2.2-.913h-9.14V636.2h2.074v-6.663h7.066a3.1,3.1,0,0,0,2.2-.913,3.1,3.1,0,0,0,.913-2.2v-5.254A3.1,3.1,0,0,0-1222.321,618.973Zm-1.161,7.453a1.036,1.036,0,0,1-.305.733,1.033,1.033,0,0,1-.732.3h-7.066v-7.328h7.066a1.033,1.033,0,0,1,.732.3,1.035,1.035,0,0,1,.305.733Z" transform="translate(-464.182 -136.034)"/>
    <path id="Контур_14" data-name="Контур 14" class="cls-1" d="M-1075.551,618.063V636.2h-2.074V618.063Z" transform="translate(-603.903 -136.036)"/>
    <path id="Контур_15" data-name="Контур 15" class="cls-1" d="M-1010.536,634.13h8.755V636.2h-10.83V618.063h2.074V634.13Z" transform="translate(-662.12 -136.036)"/>
    <path id="Контур_16" data-name="Контур 16" class="cls-1" d="M-867.747,619.283a3.339,3.339,0,0,0-2.366-.983H-877.3a3.339,3.339,0,0,0-2.366.983,3.339,3.339,0,0,0-.983,2.366v11.394a3.339,3.339,0,0,0,.983,2.366,3.339,3.339,0,0,0,2.366.983h7.188a3.339,3.339,0,0,0,2.366-.983,3.339,3.339,0,0,0,.983-2.366V621.649A3.339,3.339,0,0,0-867.747,619.283Zm-1.091,13.76a1.271,1.271,0,0,1-.375.9,1.267,1.267,0,0,1-.9.375H-877.3a1.267,1.267,0,0,1-.9-.375,1.271,1.271,0,0,1-.375-.9V621.649a1.271,1.271,0,0,1,.375-.9,1.272,1.272,0,0,1,.9-.375h7.188a1.272,1.272,0,0,1,.9.375,1.271,1.271,0,0,1,.375.9Z" transform="translate(-780.285 -136.249)"/>
    <path id="Контур_17" data-name="Контур 17" class="cls-1" d="M-702.2,621.138v14.423h-2.074V617.419h2.074l9.7,14.369V617.419h2.075v18.142H-692.5l-9.7-14.423Z" transform="translate(-938.219 -135.46)"/>
    <path id="Контур_18" data-name="Контур 18" class="cls-1" d="M-523.149,617.419v18.142h-2.075V617.419Z" transform="translate(-1098.551 -135.46)"/>
    <path id="Контур_19" data-name="Контур 19" class="cls-1" d="M-468.556,617.42h-3.461l-6.043,18.142h2.18l1.493-4.473h8.2l1.493,4.473h2.181Zm-5.139,11.595,3.178-9.52h.456l3.178,9.52Z" transform="translate(-1140.783 -135.461)"/>
  </g>
</svg>
